<?xml version="1.0" encoding="UTF-8"?>
<!DOCTYPE svg PUBLIC "-//W3C//DTD SVG 1.1//EN" "http://www.w3.org/Graphics/SVG/1.1/DTD/svg11.dtd">
<svg xmlns="http://www.w3.org/2000/svg" xml:space="preserve" width="992px" height="449px" version="1.1" shape-rendering="geometricPrecision" text-rendering="geometricPrecision" image-rendering="optimizeQuality" fill-rule="evenodd" clip-rule="evenodd"
viewBox="0 0 992 448.76"
 xmlns:xlink="http://www.w3.org/1999/xlink"
 xmlns:xodm="http://www.corel.com/coreldraw/odm/2003">
 <g id="Layer_x0020_1">
  <metadata id="CorelCorpID_0Corel-Layer"/>
  <path fill="#77BDE1" d="M504.28 58.53c0,10.68 -4.86,21.92 -8.33,29.16 24.4,-0.55 32.7,-11.69 49.98,-20.83 44.81,30 53.61,24.99 108.31,24.99 69.58,0 71.57,-79.04 -19.33,-73.07 -39.22,2.58 -58.51,9.17 -84.81,23.09 -19,-12.73 -24.02,-30.82 -54.15,-33.33 1.45,17.43 8.33,31.8 8.33,49.99z"/>
  <path fill="#77BDE1" d="M270.22 406.29c0,10.69 -4.86,21.93 -8.33,29.16 24.24,-5.64 32.54,-13.31 49.99,-24.99 51.09,44.41 158.29,37.41 158.29,-8.33 0,-37.24 -41.08,-37.49 -70.82,-37.49 -39.32,0 -61.91,11.46 -87.47,24.99 -9.95,-18.8 -22.2,-32.7 -49.99,-33.32 2.78,11.95 8.33,36.41 8.33,49.98z"/>
  <path fill="#77BDE1" d="M379.31 241.81c0,15.14 -4.94,14.62 -8.33,29.16 17.98,-4.18 36.42,-15.91 49.98,-24.99 79.68,53.35 158.3,19.95 158.3,-4.17 0,-45.75 -40.68,-41.65 -83.31,-41.65 -33.89,0 -53.03,13.37 -74.99,24.99 -5.54,-20.76 -28.37,-32.45 -49.98,-37.49 1.64,19.77 8.33,31.47 8.33,54.15z"/>
  <path fill="#77BDE1" d="M11.16 250.86c0,10.68 -4.86,21.92 -8.33,29.16 24.24,-5.65 32.53,-13.31 49.98,-25 51.1,44.42 158.3,37.41 158.3,-8.33 0,-37.24 -41.08,-37.49 -70.82,-37.49 -39.32,0 -61.91,11.47 -87.48,24.99 -9.94,-18.8 -22.19,-32.7 -49.98,-33.32 2.78,11.95 8.33,36.42 8.33,49.99z"/>
  <path fill="#77BDE1" d="M152.73 79.94c0,27.12 -2.76,20.6 -4.16,37.49 16.93,-3.94 32.84,-13.71 45.82,-24.99 13.75,9.21 15.65,13.85 33.76,20.39 39.63,14.31 124.53,13.27 124.53,-20.39 0,-32.12 -7.1,-45.82 -66.65,-45.82 -25.25,0 -51.7,5.88 -71.4,16.08 -9.47,4.9 -7.33,5.9 -20.24,8.91 -5.39,-20.17 -24.9,-32.76 -49.99,-33.32 5.14,10.7 8.33,25.38 8.33,41.65z"/>
  <path fill="#77BDE1" d="M641.42 342.41c0,10.68 -4.86,21.92 -8.33,29.16 24.24,-5.65 32.54,-13.31 49.99,-25 51.1,44.42 158.29,37.41 158.29,-8.33 0,-37.24 -41.08,-37.49 -70.81,-37.49 -39.33,0 -61.92,11.47 -87.48,25 -9.95,-18.81 -22.19,-32.71 -49.99,-33.33 2.79,11.96 8.33,36.42 8.33,49.99z"/>
  <path fill="#77BDE1" d="M782.07 202.21c0,10.69 -4.86,21.93 -8.33,29.16 24.24,-5.65 32.54,-13.31 49.99,-24.99 51.09,44.41 158.29,37.41 158.29,-8.33 0,-37.24 -41.08,-37.49 -70.82,-37.49 -39.32,0 -61.91,11.46 -87.47,24.99 -9.95,-18.8 -22.2,-32.71 -49.99,-33.33 2.78,11.96 8.33,36.42 8.33,49.99z"/>
 </g>
</svg>
