<?xml version="1.0" encoding="UTF-8"?>
<!DOCTYPE svg PUBLIC "-//W3C//DTD SVG 1.1//EN" "http://www.w3.org/Graphics/SVG/1.1/DTD/svg11.dtd">
<svg xmlns="http://www.w3.org/2000/svg" xml:space="preserve" width="200px" height="200px" version="1.1" style="shape-rendering:geometricPrecision; text-rendering:geometricPrecision; image-rendering:optimizeQuality; fill-rule:evenodd; clip-rule:evenodd"
viewBox="0 0 200 200"
 xmlns:xlink="http://www.w3.org/1999/xlink"
 xmlns:xodm="http://www.corel.com/coreldraw/odm/2003">
 <defs>
  <style type="text/css">
   <![CDATA[
    .fil0 {fill:#FFFFFF}
   ]]>
  </style>
 </defs>
 <g id="Layer_x0020_1">
  <metadata id="CorelCorpID_0Corel-Layer"/>
  <path class="fil0" d="M94.71 190.9l0 -82.78c0,-6.93 -0.4,-5.78 -8.1,-10.34l-29.31 -16.89 0 82.78c0,6.83 0.43,6.11 7.99,10.44 3.74,2.14 28.38,16.55 29.42,16.79zm-76.73 -122.66l0 62.43c0,7.91 2.98,14.49 8.13,19.64 3.78,3.77 6.54,4.79 10.96,7.47l9.78 5.62c0,-29.43 0.04,-58.86 0,-88.28 -0.01,-7.19 1.96,-7.63 10,-12.01 1.27,-0.69 2.34,-1.34 3.49,-2.01l24.41 -14.09c2.06,-1.24 12.31,-7.65 14.63,-7.65 3.45,0 5.03,1.42 8.41,3.42 2.35,1.39 4.43,2.6 6.8,3.92l34.01 19.63c2.31,1.32 4.41,2.92 4.41,6.59l0 53.07c0,5.47 -5.17,6.93 -10.67,10.23l-13.44 7.75c-3.15,1.72 -5.89,3.49 -9.07,5.22l-8.88 5.15c-5.6,3.22 -5.8,2.59 -5.79,8.23 0.01,9.44 0,18.89 0,28.33 0.98,-0.23 9.87,-5.51 10.91,-6.14l16.22 -9.36c1.88,-1.02 3.57,-2.01 5.41,-3.12 5.31,-3.19 29.83,-16.93 32.48,-18.94 0.89,-0.67 1.53,-1.08 2.29,-1.84l2.21 -2.19c0.78,-0.89 1.15,-1.19 1.91,-2.21 3.14,-4.21 5.3,-10.17 5.3,-16.43l0 -62.43c0,-10.6 -5.78,-18.71 -12.21,-23l-11.08 -6.51c-3.85,-2.15 -7.33,-4.28 -11.17,-6.43l-22.31 -12.9c-1.95,-1.15 -3.62,-2.13 -5.58,-3.22 -6.41,-3.59 -11,-7.07 -19.61,-7.07 -9.18,0 -16.97,5.56 -25.01,10.19 -8.84,5.09 -19.12,11.33 -27.89,16.12l-16.68 9.71c-6.49,4.29 -12.37,12.34 -12.37,23.11zm44.82 3.3c0.24,0.87 0.26,0.69 1.94,1.64 0.81,0.45 1.43,0.83 2.28,1.29l18.32 10.56c2.01,1.16 12.66,7.69 14.04,7.69 2.71,0 3.12,-0.73 5.89,-2.36l30.9 -17.78c0.79,-0.5 0.62,-0.01 0.89,-1.04 -1.04,-0.24 -1.52,-0.66 -2.39,-1.19 -9.29,-5.61 -20.08,-11.47 -29.63,-17.12 -6.6,-3.9 -5.13,-2.59 -14.55,2.54 -3.23,1.76 -6.12,3.62 -9.26,5.32l-9.06 5.24c-1.48,0.89 -2.95,1.68 -4.53,2.62 -1.1,0.65 -3.82,2.35 -4.84,2.59zm42.36 73.98c0.98,-0.26 6.73,-3.75 8.09,-4.56 3.76,-2.22 27.36,-15.52 28.15,-16.4 1.1,-1.25 1.17,-2.85 1.16,-5.17l0 -38.5 -24.09 13.87c-2.8,1.65 -5.39,3.07 -8.17,4.75 -4.48,2.69 -5.16,2.4 -5.14,7.51l0 38.5z"/>
 </g>
</svg>
