<?xml version="1.0" encoding="UTF-8"?>
<!DOCTYPE svg PUBLIC "-//W3C//DTD SVG 1.1//EN" "http://www.w3.org/Graphics/SVG/1.1/DTD/svg11.dtd">
<!-- Creator: CorelDRAW 2021 (64-Bit) -->
<svg xmlns="http://www.w3.org/2000/svg" xml:space="preserve" width="2409px" height="2409px" version="1.1" style="shape-rendering:geometricPrecision; text-rendering:geometricPrecision; image-rendering:optimizeQuality; fill-rule:evenodd; clip-rule:evenodd"
viewBox="0 0 2409 2409"
 xmlns:xlink="http://www.w3.org/1999/xlink"
 xmlns:xodm="http://www.corel.com/coreldraw/odm/2003">
 <defs>
  <style type="text/css">
   <![CDATA[
    .fil0 {fill:black;fill-rule:nonzero}
    .fil1 {fill:white;fill-rule:nonzero}
   ]]>
  </style>
 </defs>
 <g id="Layer_x0020_1">
  <metadata id="CorelCorpID_0Corel-Layer"/>
  <path class="fil0" d="M1203.66 4.79c-662.63,0 -1199.78,537.15 -1199.78,1199.77 0,662.63 537.15,1199.78 1199.78,1199.78 662.62,0 1199.77,-537.15 1199.77,-1199.78 0,-662.62 -537.15,-1199.77 -1199.77,-1199.77z"/>
  <g id="_1407315625488">
   <path class="fil1" d="M1889.36 1648.48c0,36 -43.2,85.71 -76.11,85.71l-1219.18 0c-32.92,0 -76.12,-49.71 -76.12,-85.71l0 -625.19c0,-15.77 -0.34,-36.17 29.49,-18.86l585.76 345.42c18.56,11.34 39.93,17.37 61.69,17.37 2.4,0 4.84,-0.08 7.23,-0.22 25.02,0 43.19,-1.89 69.08,-17.14l588.68 -345.25c29.83,-17.49 29.48,3.08 29.48,18.85l0 625.02z"/>
   <path class="fil1" d="M561.39 705.64l1289.13 0c68.39,0 33.08,87.77 -4.12,110.22 -37.2,22.29 -551.99,333.77 -571.36,345.25 -19.38,11.49 -44.06,17.15 -69.09,17.15 -0.9,0.01 -1.86,0.03 -2.78,0.03 -23.13,0 -45.93,-5.93 -66.13,-17.18l-571.54 -345.25c-37.2,-22.45 -72.34,-110.22 -4.11,-110.22z"/>
  </g>
 </g>
</svg>
