<svg width="201" height="201" viewBox="0 0 201 201" fill="none" xmlns="http://www.w3.org/2000/svg"><path d="M100.962 0.401123H100.507C45.404 0.401123 0.734497 45.0839 0.734497 100.203V100.658C0.734497 155.777 45.404 200.46 100.507 200.46H100.962C156.065 200.46 200.734 155.777 200.734 100.658V100.203C200.734 45.0839 156.065 0.401123 100.962 0.401123Z" fill="#000000"/><path d="M38.614 97.0206C38.8943 96.8805 39.1747 96.7473 39.448 96.6211C44.1987 94.4203 49.0125 92.3597 53.8193 90.299C54.0785 90.299 54.5129 89.9976 54.7581 89.8995C55.1295 89.7383 55.5009 89.5841 55.8723 89.4229C56.587 89.1145 57.3017 88.8131 58.0094 88.5047C59.4389 87.8949 60.8612 87.2851 62.2906 86.6753L70.8461 83.0096C76.5498 80.5704 82.2606 78.1243 87.9643 75.6851C93.6679 73.246 99.3786 70.7998 105.082 68.3607C110.786 65.9215 116.497 63.4754 122.2 61.0363C127.904 58.5971 133.615 56.151 139.318 53.7118C140.587 53.1651 141.96 52.352 143.319 52.1137C144.461 51.9105 145.575 51.518 146.725 51.3007C148.904 50.8872 151.307 50.719 153.395 51.6231C154.117 51.9385 154.783 52.3801 155.336 52.9338C157.985 55.5552 157.613 59.8587 157.053 63.5455C153.15 89.2406 149.247 114.943 145.337 140.638C144.805 144.163 144.076 148.032 141.294 150.261C138.94 152.147 135.591 152.357 132.683 151.558C129.775 150.752 127.21 149.063 124.695 147.402C114.261 140.491 103.821 133.58 93.3876 126.669C90.9072 125.029 88.1465 122.884 88.1745 119.905C88.1885 118.111 89.2605 116.513 90.3536 115.09C99.4206 103.259 112.503 95.1282 122.235 83.8437C123.609 82.2526 124.688 79.3789 122.803 78.4607C121.682 77.914 120.392 78.657 119.369 79.3649C106.505 88.3014 93.6469 97.2449 80.7821 106.181C76.5849 109.097 72.1846 112.097 67.1255 112.812C62.599 113.457 58.0445 112.195 53.6652 110.906C49.9935 109.826 46.3287 108.719 42.6781 107.576C40.7372 106.973 38.7332 106.322 37.2337 104.955C35.7342 103.588 34.8724 101.289 35.7763 99.4668C36.3439 98.3243 37.444 97.6024 38.6002 97.0136L38.614 97.0206Z" fill="#FFFFFF"/></svg>